name ../IE_Laxity/ie_15.mot
datacolumns  10
datarows 23
range   21.00000000 21.22000000
cursor 1.0 1.0 0.0
keys m_key
wrap
enforce_loops no
enforce_constraints no
calc_derivatives -1.000000
event_color 0.000000 0.000000 0.000000
endheader
            time femur_r_force_vx femur_r_force_vy femur_r_force_vz femur_r_force_px femur_r_force_py femur_r_force_pz femur_r_torque_x femur_r_torque_y femur_r_torque_z 
     21.00000000       0.00000000       0.00000000       0.00000000      -0.02255621      -0.51082145       0.00000000       1.14020275       4.25529460       0.00000000 
     21.01000000       0.00000000       0.00000000       0.00000000      -0.02255621      -0.51082145       0.00000000       1.14246444       4.26373533       0.00000000 
     21.02000000       0.00000000       0.00000000       0.00000000      -0.02255621      -0.51082145       0.00000000       1.14471159       4.27212182       0.00000000 
     21.03000000       0.00000000       0.00000000       0.00000000      -0.02255621      -0.51082145       0.00000000       1.14694414       4.28045381       0.00000000 
     21.04000000       0.00000000       0.00000000       0.00000000      -0.02255621      -0.51082145       0.00000000       1.14916203       4.28873107       0.00000000 
     21.05000000       0.00000000       0.00000000       0.00000000      -0.02255621      -0.51082145       0.00000000       1.15136518       4.29695335       0.00000000 
     21.06000000       0.00000000       0.00000000       0.00000000      -0.02255621      -0.51082145       0.00000000       1.15355354       4.30512042       0.00000000 
     21.07000000       0.00000000       0.00000000       0.00000000      -0.02255621      -0.51082145       0.00000000       1.15572704       4.31323202       0.00000000 
     21.08000000       0.00000000       0.00000000       0.00000000      -0.02255621      -0.51082145       0.00000000       1.15788561       4.32128792       0.00000000 
     21.09000000       0.00000000       0.00000000       0.00000000      -0.02255621      -0.51082145       0.00000000       1.16002919       4.32928789       0.00000000 
     21.10000000       0.00000000       0.00000000       0.00000000      -0.02255621      -0.51082145       0.00000000       1.16215773       4.33723170       0.00000000 
     21.11000000       0.00000000       0.00000000       0.00000000      -0.02255621      -0.51082145       0.00000000       1.16427115       4.34511910       0.00000000 
     21.12000000       0.00000000       0.00000000       0.00000000      -0.02255621      -0.51082145       0.00000000       1.16636940       4.35294987       0.00000000 
     21.13000000       0.00000000       0.00000000       0.00000000      -0.02255621      -0.51082145       0.00000000       1.16845241       4.36072377       0.00000000 
     21.14000000       0.00000000       0.00000000       0.00000000      -0.02255621      -0.51082145       0.00000000       1.17052013       4.36844059       0.00000000 
     21.15000000       0.00000000       0.00000000       0.00000000      -0.02255621      -0.51082145       0.00000000       1.17257248       4.37610009       0.00000000 
     21.16000000       0.00000000       0.00000000       0.00000000      -0.02255621      -0.51082145       0.00000000       1.17460942       4.38370204       0.00000000 
     21.17000000       0.00000000       0.00000000       0.00000000      -0.02255621      -0.51082145       0.00000000       1.17663088       4.39124623       0.00000000 
     21.18000000       0.00000000       0.00000000       0.00000000      -0.02255621      -0.51082145       0.00000000       1.17863680       4.39873244       0.00000000 
     21.19000000       0.00000000       0.00000000       0.00000000      -0.02255621      -0.51082145       0.00000000       1.18062713       4.40616044       0.00000000 
     21.20000000       0.00000000       0.00000000       0.00000000      -0.02255621      -0.51082145       0.00000000       1.18260180       4.41353001       0.00000000 
     21.21000000       0.00000000       0.00000000       0.00000000      -0.02255621      -0.51082145       0.00000000       1.18456076       4.42084095       0.00000000 
     21.22000000       0.00000000       0.00000000       0.00000000      -0.02255621      -0.51082145       0.00000000       1.18650395       4.42809303       0.00000000 
